<svg xmlns="http://www.w3.org/2000/svg" viewBox="0 0 920 560" width="920">
  <title>The Ruck  Dashboard (illustrative)</title>
  <rect width="920" height="560" fill="#050505"/>
  <rect x="0" y="0" width="72" height="560" fill="#101010" stroke="#2a2a2a"/>
  <text x="36" y="48" fill="#c48aa9" font-family="system-ui,sans-serif" font-size="11" text-anchor="middle">Nav</text>
  <rect x="88" y="24" width="808" height="44" fill="#101010" stroke="#2a2a2a" rx="4"/>
  <text x="104" y="52" fill="#ffeaf6" font-family="system-ui,sans-serif" font-size="18" font-weight="600">Dashboard</text>
  <rect x="640" y="32" width="72" height="28" fill="#ff1493" rx="4"/>
  <text x="676" y="50" fill="#050505" font-family="system-ui,sans-serif" font-size="11" font-weight="600" text-anchor="middle">Health</text>
  <rect x="88" y="88" width="400" height="200" fill="#101010" stroke="#2a2a2a" rx="6"/>
  <text x="104" y="118" fill="#ffc8e5" font-family="system-ui,sans-serif" font-size="13">Active sprint</text>
  <rect x="104" y="136" width="120" height="36" fill="#1a1a1a" stroke="#ff1493" rx="4"/>
  <text x="164" y="158" fill="#ff1493" font-family="system-ui,sans-serif" font-size="14" font-weight="bold" text-anchor="middle">A</text>
  <rect x="88" y="304" width="808" height="220" fill="#101010" stroke="#2a2a2a" rx="6"/>
  <text x="104" y="334" fill="#ffc8e5" font-family="system-ui,sans-serif" font-size="13">Velocity</text>
  <polyline points="120,460 200,380 280,400 360,340 440,360 520,320" fill="none" stroke="#ff1493" stroke-width="2"/>
  <rect x="520" y="88" width="376" height="200" fill="#101010" stroke="#2a2a2a" rx="6"/>
  <text x="536" y="118" fill="#ffc8e5" font-family="system-ui,sans-serif" font-size="13">Team / Retro</text>
  <rect x="536" y="140" width="344" height="12" fill="#2a2a2a" rx="2"/>
  <rect x="536" y="162" width="280" height="12" fill="#2a2a2a" rx="2"/>
  <text x="460" y="548" fill="#c48aa9" font-family="system-ui,sans-serif" font-size="11" text-anchor="middle">Illustrative mock  replace with your own screenshot if you prefer</text>
</svg>
