<svg xmlns="http://www.w3.org/2000/svg" viewBox="0 0 920 560" width="920">
  <title>The Ruck - Planning poker (illustrative)</title>
  <rect width="920" height="560" fill="#050505"/>
  <text x="460" y="56" fill="#ffeaf6" font-family="system-ui,sans-serif" font-size="20" font-weight="600" text-anchor="middle">Planning Poker - Sprint</text>
  <circle cx="200" cy="100" r="18" fill="#ff76c5" stroke="#2a2a2a"/>
  <text x="230" y="104" fill="#ffc8e5" font-family="system-ui,sans-serif" font-size="12">Facilitator (lead)</text>
  <text x="460" y="140" fill="#ffc8e5" font-family="system-ui,sans-serif" font-size="16" text-anchor="middle">Story title</text>
  <g transform="translate(120,280)">
    <rect x="0" y="0" width="56" height="88" fill="#1a1a1a" stroke="#2a2a2a" rx="6"/>
    <text x="28" y="52" fill="#c48aa9" font-family="system-ui,sans-serif" font-size="18" font-weight="bold" text-anchor="middle">3</text>
    <rect x="72" y="0" width="56" height="88" fill="#1a1a1a" stroke="#ff1493" stroke-width="2" rx="6"/>
    <text x="100" y="52" fill="#ffeaf6" font-family="system-ui,sans-serif" font-size="18" font-weight="bold" text-anchor="middle">5</text>
    <rect x="144" y="0" width="56" height="88" fill="#1a1a1a" stroke="#2a2a2a" rx="6"/>
    <text x="172" y="52" fill="#c48aa9" font-family="system-ui,sans-serif" font-size="18" font-weight="bold" text-anchor="middle">8</text>
    <rect x="216" y="0" width="56" height="88" fill="#1a1a1a" stroke="#2a2a2a" rx="6"/>
    <text x="244" y="52" fill="#c48aa9" font-family="system-ui,sans-serif" font-size="14" font-weight="bold" text-anchor="middle">?</text>
  </g>
  <g transform="translate(520,280)">
    <rect x="0" y="0" width="56" height="88" fill="#1a1a1a" stroke="#2a2a2a" rx="6"/>
    <text x="28" y="52" fill="#c48aa9" font-family="system-ui,sans-serif" font-size="18" font-weight="bold" text-anchor="middle">13</text>
    <rect x="72" y="0" width="56" height="88" fill="#1a1a1a" stroke="#2a2a2a" rx="6"/>
    <text x="100" y="52" fill="#c48aa9" font-family="system-ui,sans-serif" font-size="18" font-weight="bold" text-anchor="middle">21</text>
  </g>
  <rect x="360" y="420" width="200" height="40" fill="#ff1493" rx="4"/>
  <text x="460" y="445" fill="#050505" font-family="system-ui,sans-serif" font-size="13" font-weight="600" text-anchor="middle">Reveal votes</text>
  <text x="460" y="548" fill="#c48aa9" font-family="system-ui,sans-serif" font-size="11" text-anchor="middle">Illustrative mock - replace with your own screenshot if you prefer</text>
</svg>
