<svg xmlns="http://www.w3.org/2000/svg" viewBox="0 0 920 560" width="920">
  <title>The Ruck  Active sprint board (illustrative)</title>
  <rect width="920" height="560" fill="#050505"/>
  <text x="88" y="48" fill="#ffeaf6" font-family="system-ui,sans-serif" font-size="18" font-weight="600">Active sprint</text>
  <rect x="88" y="60" width="180" height="28" fill="#1a1a1a" stroke="#ff1493" rx="4"/>
  <text x="178" y="78" fill="#ff1493" font-family="system-ui,sans-serif" font-size="11" text-anchor="middle">Board</text>
  <rect x="276" y="60" width="180" height="28" fill="#101010" stroke="#2a2a2a" rx="4"/>
  <text x="366" y="78" fill="#c48aa9" font-family="system-ui,sans-serif" font-size="11" text-anchor="middle">Burndown</text>
  <rect x="464" y="60" width="180" height="28" fill="#101010" stroke="#2a2a2a" rx="4"/>
  <text x="554" y="78" fill="#c48aa9" font-family="system-ui,sans-serif" font-size="11" text-anchor="middle">Health</text>
  <rect x="88" y="108" width="200" height="400" fill="#101010" stroke="#2a2a2a" rx="4"/>
  <text x="104" y="132" fill="#ffc8e5" font-family="system-ui,sans-serif" font-size="12">Backlog</text>
  <rect x="104" y="148" width="168" height="72" fill="#1a1a1a" stroke="#2a2a2a" rx="4"/>
  <rect x="304" y="108" width="200" height="400" fill="#101010" stroke="#2a2a2a" rx="4"/>
  <text x="320" y="132" fill="#ffc8e5" font-family="system-ui,sans-serif" font-size="12">In progress</text>
  <rect x="320" y="148" width="168" height="72" fill="#1a1a1a" stroke="#ff1493" stroke-width="1" rx="4"/>
  <rect x="520" y="108" width="200" height="400" fill="#101010" stroke="#2a2a2a" rx="4"/>
  <text x="536" y="132" fill="#ffc8e5" font-family="system-ui,sans-serif" font-size="12">In review</text>
  <rect x="736" y="108" width="200" height="400" fill="#101010" stroke="#2a2a2a" rx="4"/>
  <text x="752" y="132" fill="#ffc8e5" font-family="system-ui,sans-serif" font-size="12">Done</text>
  <text x="460" y="548" fill="#c48aa9" font-family="system-ui,sans-serif" font-size="11" text-anchor="middle">Illustrative mock  replace with your own screenshot if you prefer</text>
</svg>
